HIERARCHY
ROOT Hips
{
	OFFSET -14.64140 90.27770 -84.91600
	CHANNELS 6 Xposition Yposition Zposition Zrotation Xrotation Yrotation
	JOINT Spine
	{
		OFFSET 0.00000 13.20850 -1.60436
		CHANNELS 3 Zrotation Xrotation Yrotation
		JOINT Spine1
		{
			OFFSET 0.00000 8.61716 0.00000
			CHANNELS 3 Zrotation Xrotation Yrotation
			JOINT Spine2
			{
				OFFSET 0.00000 8.61717 0.00000
				CHANNELS 3 Zrotation Xrotation Yrotation
				JOINT Spine3
				{
					OFFSET 0.00000 8.61717 0.00000
					CHANNELS 3 Zrotation Xrotation Yrotation
					JOINT Neck
					{
						OFFSET 0.00000 11.07920 1.10792
						CHANNELS 3 Zrotation Xrotation Yrotation
						JOINT Neck1
						{
							OFFSET 0.00000 7.08032 0.00000
							CHANNELS 3 Zrotation Xrotation Yrotation
							JOINT Head
							{
								OFFSET 0.00000 7.08031 0.00000
								CHANNELS 3 Zrotation Xrotation Yrotation
								End site
								{
									OFFSET 0.00000 0.00000 0.00000
								}
							}
						}
					}
					JOINT RightShoulder
					{
						OFFSET -0.01000 7.91373 5.19711
						CHANNELS 3 Zrotation Xrotation Yrotation
						JOINT RightArm
						{
							OFFSET -18.41580 0.00000 0.00000
							CHANNELS 3 Zrotation Xrotation Yrotation
							JOINT RightForeArm
							{
								OFFSET -29.11090 0.00000 0.00000
								CHANNELS 3 Zrotation Xrotation Yrotation
								JOINT RightHand
								{
									OFFSET -24.65040 0.00000 0.00000
									CHANNELS 3 Zrotation Xrotation Yrotation
									JOINT RightHandThumb1
									{
										OFFSET -5.35114 -0.85590 3.97906
										CHANNELS 3 Zrotation Xrotation Yrotation
										JOINT RightHandThumb2
										{
											OFFSET -4.52789 0.00000 0.00000
											CHANNELS 3 Zrotation Xrotation Yrotation
											JOINT RightHandThumb3
											{
												OFFSET -2.46976 0.00000 0.00000
												CHANNELS 3 Zrotation Xrotation Yrotation
												End site
												{
													OFFSET 0.00000 0.00000 0.00000
												}
											}
										}
									}
									JOINT RightHandIndex1
									{
										OFFSET -14.26970 0.00000 2.88139
										CHANNELS 3 Zrotation Xrotation Yrotation
										JOINT RightHandIndex2
										{
											OFFSET -5.48836 0.00000 0.00000
											CHANNELS 3 Zrotation Xrotation Yrotation
											JOINT RightHandIndex3
											{
												OFFSET -3.01859 0.00000 0.00000
												CHANNELS 3 Zrotation Xrotation Yrotation
												End site
												{
													OFFSET 0.00000 0.00000 0.00000
												}
											}
										}
									}
									JOINT RightHandMiddle1
									{
										OFFSET -14.26970 0.00000 -0.09147
										CHANNELS 3 Zrotation Xrotation Yrotation
										JOINT RightHandMiddle2
										{
											OFFSET -6.17441 0.00000 0.00000
											CHANNELS 3 Zrotation Xrotation Yrotation
											JOINT RightHandMiddle3
											{
												OFFSET -3.56743 0.00000 0.00000
												CHANNELS 3 Zrotation Xrotation Yrotation
												End site
												{
													OFFSET 0.00000 0.00000 0.00000
												}
											}
										}
									}
									JOINT RightHandRing1
									{
										OFFSET -12.69180 0.00000 -3.06433
										CHANNELS 3 Zrotation Xrotation Yrotation
										JOINT RightHandRing2
										{
											OFFSET -5.62556 0.00000 0.00000
											CHANNELS 3 Zrotation Xrotation Yrotation
											JOINT RightHandRing3
											{
												OFFSET -3.56744 0.00000 0.00000
												CHANNELS 3 Zrotation Xrotation Yrotation
												End site
												{
													OFFSET 0.00000 0.00000 0.00000
												}
											}
										}
									}
									JOINT RightHandPinky1
									{
										OFFSET -11.11390 0.00000 -6.03719
										CHANNELS 3 Zrotation Xrotation Yrotation
										JOINT RightHandPinky2
										{
											OFFSET -4.52789 0.00000 0.00000
											CHANNELS 3 Zrotation Xrotation Yrotation
											JOINT RightHandPinky3
											{
												OFFSET -2.46976 0.00000 0.00000
												CHANNELS 3 Zrotation Xrotation Yrotation
												End site
												{
													OFFSET 0.00000 0.00000 0.00000
												}
											}
										}
									}
								}
							}
						}
					}
					JOINT LeftShoulder
					{
						OFFSET 0.01000 7.91373 5.19711
						CHANNELS 3 Zrotation Xrotation Yrotation
						JOINT LeftArm
						{
							OFFSET 18.41580 0.00000 0.00000
							CHANNELS 3 Zrotation Xrotation Yrotation
							JOINT LeftForeArm
							{
								OFFSET 29.11090 0.00000 0.00000
								CHANNELS 3 Zrotation Xrotation Yrotation
								JOINT LeftHand
								{
									OFFSET 24.65040 0.00000 0.00000
									CHANNELS 3 Zrotation Xrotation Yrotation
									JOINT LeftHandThumb1
									{
										OFFSET 5.35114 -0.85590 3.97906
										CHANNELS 3 Zrotation Xrotation Yrotation
										JOINT LeftHandThumb2
										{
											OFFSET 4.52789 0.00000 0.00000
											CHANNELS 3 Zrotation Xrotation Yrotation
											JOINT LeftHandThumb3
											{
												OFFSET 2.46977 0.00000 0.00000
												CHANNELS 3 Zrotation Xrotation Yrotation
												End site
												{
													OFFSET 0.00000 0.00000 0.00000
												}
											}
										}
									}
									JOINT LeftHandIndex1
									{
										OFFSET 14.26970 0.00000 2.88139
										CHANNELS 3 Zrotation Xrotation Yrotation
										JOINT LeftHandIndex2
										{
											OFFSET 5.48836 0.00000 0.00000
											CHANNELS 3 Zrotation Xrotation Yrotation
											JOINT LeftHandIndex3
											{
												OFFSET 3.01859 0.00000 0.00000
												CHANNELS 3 Zrotation Xrotation Yrotation
												End site
												{
													OFFSET 0.00000 0.00000 0.00000
												}
											}
										}
									}
									JOINT LeftHandMiddle1
									{
										OFFSET 14.26970 0.00000 -0.09147
										CHANNELS 3 Zrotation Xrotation Yrotation
										JOINT LeftHandMiddle2
										{
											OFFSET 6.17440 0.00000 0.00000
											CHANNELS 3 Zrotation Xrotation Yrotation
											JOINT LeftHandMiddle3
											{
												OFFSET 3.56744 0.00000 0.00000
												CHANNELS 3 Zrotation Xrotation Yrotation
												End site
												{
													OFFSET 0.00000 0.00000 0.00000
												}
											}
										}
									}
									JOINT LeftHandRing1
									{
										OFFSET 12.69180 0.00000 -3.06433
										CHANNELS 3 Zrotation Xrotation Yrotation
										JOINT LeftHandRing2
										{
											OFFSET 5.62556 0.00000 0.00000
											CHANNELS 3 Zrotation Xrotation Yrotation
											JOINT LeftHandRing3
											{
												OFFSET 3.56744 0.00000 0.00000
												CHANNELS 3 Zrotation Xrotation Yrotation
												End site
												{
													OFFSET 0.00000 0.00000 0.00000
												}
											}
										}
									}
									JOINT LeftHandPinky1
									{
										OFFSET 11.11390 0.00000 -6.03719
										CHANNELS 3 Zrotation Xrotation Yrotation
										JOINT LeftHandPinky2
										{
											OFFSET 4.52789 0.00000 0.00000
											CHANNELS 3 Zrotation Xrotation Yrotation
											JOINT LeftHandPinky3
											{
												OFFSET 2.46976 0.00000 0.00000
												CHANNELS 3 Zrotation Xrotation Yrotation
												End site
												{
													OFFSET 0.00000 0.00000 0.00000
												}
											}
										}
									}
								}
							}
						}
					}
					JOINT pCube4
					{
						OFFSET 0.00000 10.91090 1.10792
						CHANNELS 3 Zrotation Xrotation Yrotation
						End site
						{
							OFFSET 0.00000 0.00000 0.00000
						}
					}
				}
			}
		}
	}
	JOINT RightUpLeg
	{
		OFFSET -9.98441 0.00000 0.00000
		CHANNELS 3 Zrotation Xrotation Yrotation
		JOINT RightLeg
		{
			OFFSET 0.00000 -42.11790 0.00000
			CHANNELS 3 Zrotation Xrotation Yrotation
			JOINT RightFoot
			{
				OFFSET 0.00000 -45.00020 -0.00001
				CHANNELS 3 Zrotation Xrotation Yrotation
				JOINT RightForeFoot
				{
					OFFSET 0.00000 -3.74820 0.00000
					CHANNELS 3 Zrotation Xrotation Yrotation
					JOINT RightToeBase
					{
						OFFSET 0.00000 0.06325 14.43120
						CHANNELS 3 Zrotation Xrotation Yrotation
						End site
						{
							OFFSET 0.00000 0.00000 0.00000
						}
					}
				}
			}
		}
	}
	JOINT LeftUpLeg
	{
		OFFSET 9.98441 0.00000 0.00000
		CHANNELS 3 Zrotation Xrotation Yrotation
		JOINT LeftLeg
		{
			OFFSET 0.00000 -42.11800 0.00000
			CHANNELS 3 Zrotation Xrotation Yrotation
			JOINT LeftFoot
			{
				OFFSET 0.00000 -45.00070 0.00000
				CHANNELS 3 Zrotation Xrotation Yrotation
				JOINT LeftForeFoot
				{
					OFFSET 0.00000 -3.74824 0.00000
					CHANNELS 3 Zrotation Xrotation Yrotation
					JOINT LeftToeBase
					{
						OFFSET 0.00000 0.06325 14.43110
						CHANNELS 3 Zrotation Xrotation Yrotation
						End site
						{
							OFFSET 0.00000 0.00000 0.00000
						}
					}
				}
			}
		}
	}
}
MOTION
Frames: 4
Frame Time: 0.050000
-0.046024022624892864 0.011019008614196135 0.010292196931686731 0.041184147880937216 -0.02629333512496726 0.01914296625556454 5.179239070672538 3.228867293707609 -2.234443175761483 -0.916498861502262 3.355606519336028 0.4043683927880558 -0.7486844586754925 -0.9235438643586209 0.8409029637051182 -0.5159181477656972 -0.29513673812549507 -0.26196727997116187 0.2417913420201307 11.37194296218781 -1.6254036095221411 0.3264493218595304 -0.6740803608548382 -3.9390090182849424 1.042011248339067 -17.379852468900417 -0.39660433305779713 -11.828594621718764 4.068115490415861 -16.551952998144 80.76413607978463 -1.6025898878562044 13.96425653159316 23.40163318717618 1.427054539627794 83.34898323995893 9.717315039272693 -0.40796171819236315 -5.349039424419018 4.494557470660645 -0.1427941964242284 -1.587524245289144 -0.03045280093399407 -0.0346656699321742 -56.23030040507874 -0.0010971306733028048 -0.03869657402977817 -56.236391154822904 -38.73519160953882 0.04399522760448083 0.029631351250770186 0.006549802674812108 0.0249175420470263 -0.014155043582111086 0.02663682692685593 0.027382691903553615 0.014744013534596152 -36.71333412504014 -0.014243437073861174 0.009024781262152561 0.02503190593048285 0.018934638203118123 -0.04118443417185279 -0.0010423872694773617 0.0114944008647719 0.014050186694770985 -19.740533456965522 -0.022155315915438383 0.039378296843613526 -0.01450924497062144 -0.04079201267093537 0.04355448446723025 0.0056913335880662205 -0.0342012801530058 0.026297364773815064 24.02656376867546 0.0065709000762840565 -0.023353716779578832 28.829462834945048 0.013537609764059575 -0.03531108350680038 28.846770030011598 0.04538447354948829 -0.005726392424908996 10.79139927799118 2.580232362058202 13.449279289388281 -79.0029920436908 17.666276591361598 -13.317658243061135 -69.40998259429551 11.80716645404418 -95.3847268113119 -8.085103372918017 -9.377310746764758 5.942272729148283 -0.5211741829978312 0.05753112105347863 -8.111355199441082 -0.02713725223428203 0.030250946697404784 44.523077891269374 0.00022553869298449586 -0.027688810348814676 44.56708597297217 12.469614308476988 0.013930209882090502 0.0124780349184889 -0.025822131823262165 0.030451782627121372 -0.03478470262275367 0.04567339221745763 -0.01372017522760197 0.006514959479352002 11.07163444682323 0.012866296913941956 -0.0029810823426648014 -0.004858083369879382 -0.04799194446248785 0.01235538488206445 0.03572839855205597 -0.033994804722171965 -0.04589732305037959 4.763039993920096 0.017694244020511243 0.011471688948245698 -0.024199771036123315 0.04198044123041784 -0.036740644732940995 0.02304672081405984 -0.03562552626665787 -0.04315681140185973 -5.569586205002837 0.0019601015878542645 -0.02327125973656825 -6.690281013701703 0.04053079691587163 -0.02011366820629087 -6.706496117141621 0.002749857291943193 -0.02667384189557723 -0.004986959679350002 0.03269329558908665 -0.016791362993744403 8.069484879176462 3.5142681184714615 -19.204931517658306 0.03611943458714042 10.400998542540545 -0.013767251324525727 -5.589311435740006 -15.670658329390747 3.198810546141003 0.018456728574690464 -0.03869707354196119 -0.016259029265448234 0.04703473458807421 4.6736212917761035 -0.03878342824535855 12.493226385514419 -8.260074153826906 6.837626983945049 -0.030810354539546995 46.33577602209918 0.008081804671285152 -4.3699126140129785 -14.774552896085389 -3.8771265780888076 0.027088537239037005 0.0014205092728265855 -0.04563663910809561 -0.0023808820589907224 -10.777908166019163 -0.03941900067308715 
0.033208455935026145 0.01309822194582895 0.02686847981196845 0.018473081457609706 -0.0318787887698817 0.022695015621908565 5.166389852614006 3.206098542528154 -2.167720084645726 -0.919129900670688 3.427901923875171 0.39159543829712234 -0.730960190213548 -0.8850928823423572 0.7483525338289778 -0.4823917199515384 -0.2729063272422244 -0.2956423565225984 0.270794940525825 11.17457960075864 -1.6834633523638949 0.3919192877065504 -0.7730854079826709 -4.180912822715092 1.0894374273700862 -17.458903228115595 -0.4072785852070394 -11.70041075982253 3.978224349146637 -16.60395081623528 81.04934712499173 -2.177450804355693 13.046985319874873 23.615802656345853 1.515144801575192 82.27618055552932 9.846670891457553 -0.4114662924155025 -5.53289877168159 4.479556679207173 -0.11460889282156102 -1.597824154731243 0.016888375738426168 -0.009073622056739367 -56.27871305274258 0.01438973240799121 0.016975302269864257 -56.2064928627754 -38.779125450706424 -0.017399099602807347 -0.010324968420531877 -0.04876457968516759 -0.011663188772780865 -0.011746892697925665 -0.03598111916661346 0.009341685411381773 0.02435223048797982 -36.72503160121455 0.03025397524635684 -0.01959071700080412 0.0012523142693592214 -0.014470023726733457 -0.036864208506043314 0.017962067170623746 -0.0157497142490085 -0.030035278372793732 -19.725425581641588 0.020173577524605142 -0.038036730298587666 0.003515932374284929 -0.005904866977266207 -0.019859992098373726 -0.0028160487071397793 -0.03629718688776242 0.011717356415921006 24.04453632201532 -0.002071573802696217 -0.039205437097962495 28.81531194687804 0.028700857278070164 0.009296089767716556 28.846764896371127 -0.01679651486033382 0.016241853465419332 10.716506889150702 2.5568222515479584 13.46267618153774 -79.17475206023144 17.315369567320705 -12.919790030351809 -71.71724910683326 11.847621690430511 -96.08624506696722 -8.0669837258794 -9.784805237964864 6.22000093750442 -0.49103965686302653 0.11324241104048632 -8.118652662151996 -0.04235519568074521 0.006180720814752233 44.58549960120472 -0.02642408190404742 0.048493295968529686 44.56705610377174 12.456474512709338 -0.0008845743279970208 0.001999209797917328 -0.021506129787935514 0.0424904164711604 -0.02463454898657466 0.007989207743429292 0.01135844104079225 0.025330734740802198 11.083595851086724 -0.019413909153334154 -0.02746083674697166 -0.010380872651108057 -0.04566150273786691 -0.033552446565938525 -0.021128949922250298 0.00878682094765266 -0.049181956046639025 4.7270196968979254 -0.046621238766934504 -0.003057815144578461 0.019763738663052425 0.04055356317957625 -0.04393894351583979 0.01049939374824655 -0.017113385489578376 -0.01949498076049179 -5.586995301744148 0.03395768887491179 0.027533349717175356 -6.678910369517132 -0.014713106078273992 0.0115986249509036 -6.717288803662144 0.027788162184457305 -0.03368595495399188 -0.029492264188948753 -0.014505421471020389 -0.04394986106454268 8.054155983042946 3.5255954295606644 -19.240724455238883 0.010661358300066795 10.406913415323645 0.06272241630682718 -5.5842593291914335 -15.641473303745796 3.1959767990869343 0.0074118716500123135 0.038531067658743944 0.009799310505979148 -0.0063899390494414204 4.653399893709001 0.03374146919640897 12.42441356065798 -8.271706224331433 6.8971900862723174 0.023708083078184727 46.34734305263405 0.024155362790994908 -4.371362902714189 -14.724917068068256 -3.8238937296493063 0.04076866911234011 -0.021146243958416022 -0.03290599839529551 0.005539245566540552 -10.725649436139454 0.027825325767230374 
-0.04368819909642989 0.0026046811174942467 0.016817881314544727 0.03807324918084896 -0.0037196983223191254 -0.007793174821157098 5.182269808885782 3.204290682806901 -2.2433767205559167 -0.8642881011785074 3.3548750435516363 0.4654316735610973 -0.7068973623813891 -0.8591361434758408 0.6735822277239742 -0.38881002913783075 -0.24787824930347108 -0.34515947511862927 0.30323590674941425 11.178647058391038 -1.7876523077577764 0.3739590402053287 -0.741308264993156 -4.217984454059462 1.0567525371542623 -17.446512409312724 -0.4241694127966437 -11.4852675263626 3.9608217342580128 -16.747568935382905 81.37822389714334 -2.0594841879441237 11.66160717278504 23.529620692689953 1.6353801936977386 81.93045920931843 10.010571754164722 -0.4478679562856187 -5.641142743848208 4.490864385336617 -0.13624579601209186 -1.5674523861279037 0.0028634823857112417 -0.009004929555753851 -56.24006762862765 -0.03502716753152614 0.026804959270645412 -56.20066480554542 -38.72317460985548 -0.04629224221193299 -0.046747208915077484 0.02987489255951509 0.010346660787872565 0.03378807293759677 -0.01071608931801693 -0.011589071493211622 -0.026592432697160717 -36.72128711814594 -0.048265194567043194 -0.0045304699454010305 0.014938352078648158 -0.046273993968470026 -0.02595976544713357 -0.023437818685207987 -0.04468867387958543 0.022298439897077495 -19.78260683615709 0.008713534010676614 0.022784617752038532 -0.04563709881167346 -0.046235639012114874 0.013031490564291216 -0.04267141611603361 -0.027547608933347633 -0.006462908621095971 24.103451174239076 -0.02915073755167275 0.015478660955934417 28.84827353630232 0.006713817038028669 0.0007641996156129751 28.821873613669034 -0.037208918391812514 0.008330538687071818 10.650737499575031 2.5064327080628845 13.604587427357577 -79.35919430322669 17.136190508105617 -12.283094525037459 -73.99018820668643 11.716789277729427 -97.32350861890335 -8.57111731945706 -10.417942778732083 6.620583194661141 -0.4912621290547683 0.028451351625505925 -8.15232284522292 0.003865503325826839 0.019299436210492318 44.60588322025938 -0.03451701551435768 -0.0005793709539217683 44.58315849602313 12.417137589747629 0.018690280733061403 -0.0072205204447901876 -0.048843868903739165 0.002461264833958998 0.0115686416422217 0.03225575064530908 0.018880110622321554 0.0011861356176601672 11.106682292990467 -0.021816595031317686 -0.007698649645095543 0.0006625696210786349 0.013851742186470931 0.004554566326167881 0.04083106614093056 -0.014765872220360132 -0.04205386872149214 4.822318422191817 0.03519509339729099 -0.04300143313694626 0.030800204374250423 0.0034661013318814013 0.04129514807592267 -0.002321960707149342 0.04691847385880624 -0.0015491412519180404 -5.600406602298234 0.036756291836339335 0.014305156728944609 -6.737850085475809 -0.0449219535198283 0.014599699242729585 -6.705968960288344 -0.03488772860567957 0.04181919433476092 -0.02826827369009139 0.048410512271487544 -0.03152691685751575 8.086043106229983 3.4579709759954733 -19.223641555622248 0.004941838371144421 10.397526085045113 0.031344234358233955 -5.645644417928554 -15.645903475078121 3.1644869715045445 -0.03611848594940223 -0.00683801802452696 0.02913285281272187 0.015129552207348245 4.710341211758433 0.009589392264863017 12.411553447923152 -8.262242721750042 6.896900486100804 0.024408435985752028 46.36498641763447 0.03860480608355054 -4.305932002651261 -14.755326229322806 -3.861276502959549 0.04357594150798081 -0.01734615678338777 -0.004951526348358252 0.023739879622112343 -10.744982316265162 0.0009736505323020845 
-0.03873063817312063 -0.014768927007876301 0.0028040311141308734 0.016700248308572096 0.0026476177507595757 0.048833372355776 5.323010872545356 3.080252541811039 -2.2261057305740932 -0.869984511898862 3.38931656564424 0.4287518744871985 -0.735784828923198 -0.9059829463099294 0.6814526192748666 -0.3605034611654038 -0.26417842055604496 -0.3360267076437165 0.22469785305842 11.156356549896296 -1.691704925858788 0.3512312665085946 -0.7273969383242491 -4.06104271375813 1.037702971562932 -17.476935160653188 -0.3890729590235692 -11.349771247174443 3.8778685242511606 -17.106614490077853 82.03883804143547 -1.9510729915801148 9.6941683414618 23.03161284539483 1.3052857382562315 81.77012817100425 9.65872692726679 -0.5047831661229611 -5.713719733415006 4.5264026784710065 -0.09214117105120692 -1.6320431434390608 0.017574341450075647 0.03463240373425978 -56.25276598413068 0.022825377010552997 0.03519036718479856 -56.19762365304399 -38.78705567632428 0.040831920488672124 -0.012447040773777273 -0.0199158044699811 0.026845944612681836 0.03764532630584868 -0.043943354481458974 0.0016022266143571496 -0.027770994881315004 -36.675514603060755 -0.0464262333075622 0.01929243153704319 0.011016185340241355 -0.025539026307625598 -0.008792014942692149 -0.019757365452481315 0.025126520600549804 0.01262900630564776 -19.742433957128874 0.01967842962199343 -0.019214214858072228 -0.0038620464185952397 0.004099619888139882 -0.04248613453734652 0.009028612076528436 0.03633207614538245 0.02655166233193374 24.046778688078277 -0.005842194595090825 0.002463761383910195 28.865786799113152 -0.0021999324286910496 -0.01778868199024202 28.850423123606816 -0.015016617904957476 0.04119967428133002 10.661861350574304 2.5281343498851436 13.820742072675362 -79.8272335228589 16.233616994095023 -11.25438142571788 -76.7300905872487 11.112821901358457 -98.75010194321793 -8.722640173755906 -11.23204966460325 6.677953345068469 -0.4580169583655577 0.1134859494792219 -8.155692685350825 -0.016423393933939257 -0.003224683981038021 44.55349349497485 0.0016870113742654155 0.04701688049409646 44.56701578437352 12.459868036926965 -0.016727788211451544 0.04510522121381156 0.010651105149143768 0.012963753638364748 -0.02935504332988958 0.005026786621286131 0.020450357675567594 0.014940296721703735 11.07892668849149 0.02695406405829612 -0.021830332781816734 -0.0058417664664332574 -0.011567127103205748 -0.038852444094493066 0.002088348863051489 -0.025473798721073058 -0.03287093171894511 4.751405465596526 0.01533108516478206 0.04171914850504786 0.04161960076215138 -0.0001438683742388056 -0.02679950864671403 -0.032550940907986235 -0.03389510887332831 -0.03172167613233676 -5.574395190775062 0.030955031242363873 0.010463055776743108 -6.762251010492582 -0.0022007251240080492 0.03554977086974115 -6.7326016427768405 -0.024269363463354485 0.010246423476200799 -0.04005128784279722 -0.04078832987693055 -0.025659013985820673 8.042747812237359 3.473824101793631 -19.215783465190707 0.02676333395622862 10.365295511115534 0.017382319550255772 -5.597242444698641 -15.671678354427334 3.2338983960288012 -0.007300550525573863 0.026981815693521514 -0.04696087267479226 -0.006704057835173502 4.685070867907993 -0.03930051103983009 12.482142402450773 -8.280052213969894 6.9023357673272425 0.008982807684480888 46.386781807097535 0.03396497720863595 -4.319371732606106 -14.699433482833882 -3.8393485621157555 -0.027183328144808405 0.01772357952000247 -0.0060703511858121095 -0.02773352516495142 -10.775628321258393 0.04663236347449114 
